<?xml version="1.0" encoding="utf-8"?>
<!-- Generator: Adobe Illustrator 18.1.1, SVG Export Plug-In . SVG Version: 6.00 Build 0)  -->
<svg version="1.1" id="Layer_1" xmlns="http://www.w3.org/2000/svg" xmlns:xlink="http://www.w3.org/1999/xlink" x="0px" y="0px"
	 viewBox="0 0 130 98.7" enable-background="new 0 0 130 98.7" xml:space="preserve">
<g opacity="0.5">
	<path fill-rule="evenodd" clip-rule="evenodd" fill="#BCBEC0" d="M113.9,33c-0.6,0.3-1.3,0.8-1.9,0.8c-2.2-0.1-5.5-1-4.7,2.7
		c0.4,2,2.8,4,4.8,5.1c1.4,0.8,3.6,0.2,5.4,0.2c6.8,0,7.2,0.4,7.9,9c-2.5-1.7-4-2.8-5.5-3.8c0.1-0.8,0.2-1.5,0.3-2.3
		c-4.3,1.2-8.5,2.6-12.8,3.7c-3.4,0.8-7,1.3-10.9,2c0-4.5,0-8.1,0-11.9c2.7,0,5.3,0,8.2,0c0.1-1.3,0.2-2.7,0.3-4.6
		c-2.5,0-4.7,0-6.9,0c0-0.6-0.1-1.3-0.1-1.9c5.1-1.4,10.6,0.9,15.7-0.3C113.7,32.1,113.8,32.5,113.9,33z"/>
	<path fill-rule="evenodd" clip-rule="evenodd" fill="#BCBEC0" d="M81.3,35.8c-0.5-3.7-1-7.1-1.5-10.6C92.3,26.4,93,27,92.7,36.7
		c-1.9-0.2-3.8-0.4-5.6-0.5C85.3,36.1,83.5,36,81.3,35.8z"/>
	<path fill-rule="evenodd" clip-rule="evenodd" fill="#BCBEC0" d="M81.3,52.9c3.9-0.4,7.5-0.7,12.8-1.2c-1.4,3.9-1.7,7.9-3.9,9.6
		c-2.5,1.9-6.6,1.8-10.4,2.6C80.3,60.2,80.8,56.6,81.3,52.9z"/>
	<path fill-rule="evenodd" clip-rule="evenodd" fill="#BCBEC0" d="M81.8,49.7c0-3.7,0-6.9,0-10.2c7.8-1.3,11.6-0.3,12,3.3
		C94.4,48.9,93.6,49.5,81.8,49.7z"/>
	<path fill-rule="evenodd" clip-rule="evenodd" fill="#BCBEC0" d="M74.1,10.3c4.1,1.2,8.7,1.5,12.1,3.8c2.5,1.6,3.4,5.7,5.7,9.9
		c-5-0.8-8.6-1.4-11.9-1.9c-1.9-4-3.8-7.9-5.7-11.9C74.2,10.3,74.1,10.3,74.1,10.3z"/>
	<path fill="#BCBEC0" d="M72.4,68.1C72.4,68.1,72.4,68.1,72.4,68.1c0,0,0,0.1,0,0.1C72.4,68.2,72.4,68.2,72.4,68.1z"/>
	<path fill="#BCBEC0" d="M72.7,66.6c-0.1,0.5-0.2,1-0.3,1.5c0,0,0,0,0,0C72.6,67.5,72.7,67,72.7,66.6z"/>
	<path fill="#BCBEC0" d="M74.2,10.3c-0.1,0-0.2-0.1-0.2-0.1c0,0.1,0.1,0.1,0.1,0.1L74.2,10.3z"/>
	<path fill="#BCBEC0" d="M90.1,64.7c-1.8,0.4-3.6,0.7-5.3,1.1c-1.9,0.3-3.9,0.6-5.7,0.9c-3.1,11.6-2.3,12.2-7.4,11.7
		c0.3-3.4,0.6-6.8,0.9-10.2c0,0-0.1,0-0.1,0c0,0.1,0,0.1,0,0.1c0,0,0-0.1,0-0.1c-11.5,0.3-23.1,0.6-34.7,0.8c-2.8,0-5.6-0.5-8.4-1
		c-0.7-0.1-1.4-1.1-2.9-2.6c0,0,0,0,0,0c0.1,0.6,0.2,1.1,0.3,1.7c0.1,0.7,0.2,1.4,0.4,2.1c0.1,0.6,0.2,1.1,0.3,1.7
		c0.2,0.8,0.3,1.6,0.5,2.4c0.1,0.5,0.2,0.9,0.3,1.4c0.3,1.3,0.6,2.5,0.9,3.8c-4.3,0.8-5.3-1.6-6.2-4.5C17.2,54,17.2,34.1,23,14.2
		c0.3-1.1,0.5-2.2,0.7-3.4c-12,2.9-13.3,4.1-13.6,13c3.2-0.5,6.3-1,9.5-1.6c0.2,0.4,0.4,0.8,0.5,1.2c-1,0.7-2,1.6-3.1,2
		c-1.9,0.6-3.9,0.7-5.8,1.2c-2.5,0.7-5.6,6.2-4.1,8.3c0.8,1.1,3.6,1,5.5,1.2c1.7,0.2,3.4,0,5.8,0c-1.8,4-4.9,2.6-7.1,2.9
		c-3.2,0.4-5.1,1-5.1,5c0,4,1.5,5.4,5.2,5.2c1.5-0.1,3,0.1,4.5,0.5c0.7,0.2,1.2,1.1,1.8,1.7c-0.8,0.4-1.5,1.1-2.3,1.1
		c-2.7-0.1-5.4-0.4-8.2-0.7c0,9,0.6,9.7,8,11c1.6,0.3,3.2,1.2,4.8,1.7c-0.2,0.6-0.4,1.1-0.6,1.7c-3.1-0.5-6.3-1-9.5-1.5
		C10,73.4,15,76.6,22.4,77.3c-2,5.2-3.7,9.6-5.4,14.2c21.9,0,43.7,0,65.4,0c-1.7-4.6-3.4-8.9-5.3-14C84.7,76.6,90.5,73.9,90.1,64.7z
		 M61.4,84.9C53.5,85,45.7,84.8,37.9,85c-3.5,0.1-4.3-1.5-4.1-4.4c10.8,0,21.1,0,31.3,0C65.4,84.8,65.4,84.9,61.4,84.9z"/>
	<path fill="#BCBEC0" d="M72.4,20.6c0,0.1-0.1,0.1-0.1,0.2c0,0,0.1,0,0.1,0C72.5,20.7,72.4,20.7,72.4,20.6z"/>
	<path fill="#BCBEC0" d="M72.5,20.8c0,0,0.1,0,0.1,0C72.6,20.8,72.5,20.8,72.5,20.8L72.5,20.8z"/>
	<path fill="#BCBEC0" d="M72.5,20.8c0,0,0.1,0,0.1,0c0,0-0.2-0.2-0.2-0.2C72.4,20.7,72.5,20.7,72.5,20.8z"/>
	<path fill="#BCBEC0" d="M72.3,20.8c0,0,0.1,0,0.1,0l0,0C72.4,20.8,72.4,20.8,72.3,20.8z"/>
	<path fill="#BCBEC0" d="M72,53.4c-14,0.1-27.9,0.2-41.9,0.1c-1.6,0-3.1-1.1-4.7-1.7c0.2-0.6,0.4-1.1,0.5-1.7c16.2,0,32.5,0,49.1,0
		c0-4,0-7.6,0-11.7c-16.6,0-32.9,0-49.2,0c-0.2-0.6-0.3-1.3-0.5-1.9c1.7-0.5,3.3-1.4,5-1.4C45.1,35,59.8,35,75.5,35
		c-1-4.9-2-9.6-3-14.2c0,0-0.1,0-0.1,0c-0.6,1.1-1.2,2.9-1.8,2.9c-14.2,0.2-28.5,0.1-42.9,0.1c0-4.6,3.7-3.7,5.7-3.7
		c13,0,26,0.4,39,0.7c0-0.1,0.1-0.1,0.1-0.2c0,0,0.2,0.2,0.2,0.2c-0.3-2.8-0.5-5.6-0.9-8.3c-0.3-2.2,0.1-3.2,2.3-2.3
		c-0.4-0.4-0.8-1.1-1.2-1.1c-11.5-0.4-23-1-34.6-0.9c-4.3,0-8.6,1.4-12.8,2.2c1.1-0.1,2.1-0.2,3.8-0.3c-0.3,1.3-0.6,2.6-0.9,4
		c-0.1,0.4-0.2,0.8-0.3,1.3c-0.2,0.9-0.4,1.8-0.5,2.7c-0.1,0.5-0.2,1-0.3,1.5c-0.2,0.9-0.3,1.7-0.4,2.6c-0.1,0.5-0.2,0.9-0.2,1.4
		c-0.2,1-0.3,2.1-0.4,3.1c-0.1,0.4-0.1,0.8-0.2,1.2c-0.1,1.1-0.3,2.2-0.4,3.4c-0.1,0.6-0.1,1.1-0.1,1.7c-0.1,0.7-0.1,1.5-0.2,2.2
		c0,0.6-0.1,1.2-0.1,1.9c0,0.7-0.1,1.3-0.1,2c0,0.6-0.1,1.3-0.1,1.9c0,0.6,0,1.3,0,1.9c0,1.3,0,2.6,0,3.9c0,0.5,0,1,0,1.5
		c0,0.8,0.1,1.5,0.1,2.3c0,0.5,0,1,0.1,1.5c0,0.8,0.1,1.6,0.1,2.3c0,0.5,0.1,0.9,0.1,1.4c0.1,0.8,0.1,1.6,0.2,2.4
		c0,0.3,0.1,0.7,0.1,1c0.2,2,0.5,4,0.8,6c0,0,0,0,0,0c2.8,0,4.2,0,5.5,0c12.1,0,24.2,0,36.3,0.1c0.1,0,0.2,0,0.4,0c0,0,0.1,0,0.1,0
		c0.1,0,0.2,0,0.3,0c0,0,0.1,0,0.1,0c0.3,0,0.6-0.1,0.9-0.1c0.1,0,0.1,0,0.2,0c0.1,0,0.2,0,0.3,0c0.1,0,0.1,0,0.2,0
		c0.1,0,0.2,0,0.2,0c0,0,0.1,0,0.1,0c0.1,0,0.3,0,0.4,0c0.1,0,0.1,0,0.2,0c0.1,0,0.1,0,0.2,0c0.1,0,0.1,0,0.2,0c0.1,0,0.1,0,0.2,0.1
		c0,0,0.1,0,0.1,0.1c0,0,0.1,0.1,0.1,0.1c0,0,0.1,0.1,0.1,0.1c0,0,0.1,0.1,0.1,0.1c0,0.1,0.1,0.1,0.1,0.2c0,0,0,0.1,0.1,0.2
		c0,0.1,0,0.2,0.1,0.3c0,0,0,0.1,0,0.1c0,0.1,0,0.3,0,0.5c0.9-4.3,1.8-8.7,2.8-13.6C73.6,53.2,72.8,53.4,72,53.4z"/>
</g>
</svg>
