<?xml version="1.0" encoding="utf-8"?>
<!-- Generator: Adobe Illustrator 18.1.1, SVG Export Plug-In . SVG Version: 6.00 Build 0)  -->
<svg version="1.1" id="Layer_1" xmlns="http://www.w3.org/2000/svg" xmlns:xlink="http://www.w3.org/1999/xlink" x="0px" y="0px"
	 viewBox="0 0 71.9 85.9" enable-background="new 0 0 71.9 85.9" xml:space="preserve">
<path fill-rule="evenodd" clip-rule="evenodd" fill="#414042" d="M3.9,59.9c0,4.2,3.8,7.6,8.3,7.7c1.4,0,2.8,0,4.5,0
	c0,2.8,0,5.5,0,8.1c0,2.8,2.5,5.2,5.6,5.2c12.7,0,25.4,0.1,38.1,0c3.1,0,5.3-1.7,6.3-4.4c1.1-2.7,0.6-5.3-1.7-7.3
	c-1-0.9-1.5-1.5-1.3-2.9c0.4-2.5-2-4.1-5.7-3.9c-0.4-1.2-0.2-1.7,1.3-1.9c5.2-0.8,7.7-6,5.2-10.3c-0.6-1.1-1-2.4-1.1-3.6
	c-0.1-7,0-14,0-21c0-5.9-4.4-10.1-10.8-10.1c-1.1,0-1.6-0.3-2.1-1.2C47.6,8.8,41.5,5.9,35,6.6c-6.1,0.7-11.2,4.8-13,10.5
	c-0.2,0.7-1,1.5-1.7,1.7c-6.6,1.8-9,9.1-4.6,13.9c0.7,0.7,1,1.7,1.6,3c-2.2,0-3.7,0-5.2,0c-4.5,0-8.2,3.4-8.2,7.6
	C3.9,48.7,3.9,54.3,3.9,59.9z M61.1,66.3c0.1,0.4-0.7,1-1.4,2c-0.8-0.9-1.7-1.5-1.6-1.9c0.1-0.6,1-1.1,1.5-1.6
	C60.1,65.2,60.9,65.7,61.1,66.3z M55.9,74c0-1.9,1.8-3.5,3.9-3.5c2.1,0,3.8,1.6,3.8,3.5c0,2-1.7,3.5-3.8,3.5
	C57.8,77.6,55.9,75.8,55.9,74z M52.3,71.6c-0.8-0.3-1.3-0.5-1.9-0.6c-0.6-0.1-1.3-0.1-2.2-0.2c0-7.7,0-15.3,0-22.8
	c0-1.3,0.5-2.3,2-2.3c1.5,0,2,1,2,2.3c0,3.2,0,6.3,0,9.5C52.3,62.1,52.3,66.8,52.3,71.6z M46.6,75.8c0-1.4,1.3-2.6,2.8-2.6
	c1.4,0,2.8,1.3,2.8,2.7c0,1.2-1.4,2.4-2.8,2.5C47.9,78.4,46.6,77.3,46.6,75.8z M39.3,48.4c0-1.3,0.3-2.7,2-2.7
	c1.9,0,2.1,1.4,2.1,2.8c0,8.2,0,16.4,0,24.5c0,1.3-0.2,2.7-1.9,2.7c-1.9,0-2.1-1.4-2.1-2.8c0-4.1,0-8.2,0-12.3
	C39.3,56.6,39.4,52.5,39.3,48.4z M31.3,48.5c0-1.4,0.2-2.8,2.1-2.8c1.7,0,2,1.4,2,2.7c0,8.2,0,16.4,0,24.5c0,1.4-0.2,2.8-2.1,2.8
	c-1.7,0-2-1.4-2-2.7c0-4.1,0-8.2,0-12.3C31.3,56.6,31.3,52.5,31.3,48.5z M22.4,48.4c0-1.3,0.2-2.7,1.9-2.7c1.9,0,2.1,1.4,2.1,2.8
	c0,4,0,8.1,0,12.1c0,4.2,0,8.3,0,12.5c0,1.3-0.2,2.7-1.9,2.7c-1.9,0.1-2.1-1.4-2.1-2.8C22.4,64.8,22.4,56.6,22.4,48.4z M21,35.6
	c11,0,21.9,0,32.8,0c0,2.2,0,4.3,0,6.5c-11.1,0-22,0-32.8,0C21,39.9,21,37.7,21,35.6z M17.1,27c-0.1-2.9,1.9-4.9,5.1-5.2
	c0.8-0.1,1.7-0.3,2.5-0.4c1.2-6.8,4.8-10.7,10.3-11.5C41.4,9,45.2,11.4,49.2,19c0.3-0.1,0.6-0.1,0.9-0.2c6.8-1.7,10.6,2.9,10.3,8.1
	c-0.4,6.9-0.1,13.9-0.1,20.8c0,1.4,0.1,2.5,1.1,3.8c1.9,2.5,0,5.4-3.5,5.6c0-0.7,0-1.4,0-2c0-6.8,0-13.6,0-20.5c0-2.3-0.5-2.8-3-2.8
	c-10.1,0-20.3,0-30.4,0c-0.7,0-1.3,0-2,0C19.3,31.6,17.2,29.7,17.1,27z M7.1,44.3c0-3,1.7-4.7,5-4.9c1.5-0.1,2.9,0,4.6,0
	c0,8.2,0,16.3,0,24.5c-1.7,0-3.3,0.1-4.9,0c-3-0.3-4.7-2.1-4.7-5C7.1,53.9,7.1,49.1,7.1,44.3z"/>
</svg>
