<?xml version="1.0" encoding="utf-8"?>
<!-- Generator: Adobe Illustrator 18.1.1, SVG Export Plug-In . SVG Version: 6.00 Build 0)  -->
<svg version="1.1" id="Layer_1" xmlns="http://www.w3.org/2000/svg" xmlns:xlink="http://www.w3.org/1999/xlink" x="0px" y="0px"
	 viewBox="0 0 148.6 84.7" enable-background="new 0 0 148.6 84.7" xml:space="preserve">
<path fill="#414042" d="M65.8,24.7l2-6.9l3.3,0c0.8,0,1.5-1,1.4-1.8c0-0.8-0.7-1.8-1.5-1.8l-11.1,0.1c-0.8,0-1.4,1-1.4,1.8
	c0,0.8,0.7,1.8,1.5,1.8l4.8,0l-1.6,4.8l-30.6,0.1l0.6-2.2c0.1-0.4,0-0.6-0.3-1c-0.3-0.3-0.7-0.5-1.1-0.5l-9.1,0
	c-0.8,0-1.5,0.4-1.4,1.2c0,0.8,0.7,1.2,1.5,1.2l7.3,0l-0.6,2.9c0,0,0,0.1,0,0.1L28.4,29L26.7,34c-1.7-0.5-3.6-0.7-5.4-0.7
	C9.9,33.4,0.8,42.6,0.8,53.9c0.1,11.3,9.3,20.5,20.6,20.4c11.3-0.1,20.5-9.3,20.4-20.6c0-8.4-5.2-15.6-12.4-18.8l1-2.9l23.9,24.5
	c0,0,0.1,0,0.1,0.1c0,0,0.1,0.1,0.1,0.1c0.1,0,0.1,0.1,0.2,0.1c0,0,0.1,0,0.1,0.1c0.1,0,0.1,0,0.2,0.1c0,0,0.1,0,0.1,0
	c0.1,0,0.2,0,0.3,0c0,0,0.1,0,0.1,0l4.1-0.3c1.5,9.9,10.1,17.5,20.4,17.5c11.3-0.1,20.5-9.3,20.4-20.6c-0.1-11.3-9.3-20.5-20.6-20.4
	c-3,0-5.8,0.7-8.4,1.8L69,30.7h31.3V29H68.1L65.8,24.7z M38.5,53.8c0,9.4-7.6,17.2-17,17.2c-9.4,0-17.2-7.6-17.2-17
	c0-9.4,7.6-17.2,17-17.2c1.5,0,2.9,0.2,4.3,0.5L20,53.5c-0.3,0.8,0.1,1.6,0.9,1.8c0.2,0.1,0.3,0.1,0.5,0.1c0.6,0,1.2-0.4,1.4-1
	l5.6-16.2C34.3,40.9,38.4,46.8,38.5,53.8z M54.7,52.7L31.4,29l0.5-2.5l30.4-0.1L54.7,52.7z M59.5,53.8
	C59.5,53.8,59.5,53.8,59.5,53.8L57.4,54l7.2-25.3l4.2,7.7C63.2,40.1,59.5,46.5,59.5,53.8z M79.8,36.6c9.4,0,17.2,7.6,17.2,17
	c0,9.4-7.6,17.2-17.1,17.2c-8.5,0-15.6-6.2-17-14.3l17-1.3c0.5,0,0.9-0.3,1.2-0.8c0.2-0.4,0.2-1,0-1.4L73,38
	C75.1,37.1,77.4,36.6,79.8,36.6z M77.5,52.4l-14.8,1.2c0-5.9,3.1-11.1,7.7-14.2L77.5,52.4z"/>
<path fill="#414042" d="M74.7,26.8h25.7V9.8H74.7V26.8z M76.8,25.7l7.5-7l3.3,2.8l3.3-2.8l7.5,7H76.8z M99.4,25.3l-7.7-7.3l7.7-6.6
	V25.3z M98.5,10.9l-11,9.3l-11-9.3H98.5z M75.8,11.5l7.7,6.6l-7.7,7.3V11.5z"/>
<rect x="108.1" y="48.1" fill="#414042" width="27.1" height="1.4"/>
<rect x="108.1" y="57.3" fill="#414042" width="40.4" height="1.4"/>
</svg>
