<?xml version="1.0" encoding="utf-8"?>
<!-- Generator: Adobe Illustrator 18.1.1, SVG Export Plug-In . SVG Version: 6.00 Build 0)  -->
<svg version="1.1" id="Layer_1" xmlns="http://www.w3.org/2000/svg" xmlns:xlink="http://www.w3.org/1999/xlink" x="0px" y="0px"
	 viewBox="0 0 151.1 86.1" enable-background="new 0 0 151.1 86.1" xml:space="preserve">
<path id="path6712" fill="#414042" d="M95.3,14.3c-1.6,1.6-3.7,2.2-6.1,2.2c-3,0-5.7-1.2-7.3-3.6c-1.6,2.4-4.3,3.6-7.4,3.6
	c-3,0-5.7-1.3-7.3-3.6c-1.6,2.4-4.3,3.6-7.4,3.6c-2.2,0-4.3-0.5-5.8-1.9l-1.2-8.4c1.6,2.1,4.1,3.5,7,3.5c3.1,0,5.8-1.5,7.4-3.9
	c1.6,2.3,4.3,3.9,7.3,3.9c3,0,5.8-1.5,7.4-3.9c1.6,2.3,4.3,3.9,7.3,3.9c3.1,0,5.8-1.6,7.3-4L95.3,14.3z"/>
<path id="path6714" fill="#414042" d="M97.5,85.6l13.3-85.8l-9,0.1L89.7,76.5H59.6L47.5-0.1l-8.9-0.1l13.3,85.8H97.5z"/>
</svg>
