<?xml version="1.0" encoding="utf-8"?>
<!-- Generator: Adobe Illustrator 18.1.1, SVG Export Plug-In . SVG Version: 6.00 Build 0)  -->
<svg version="1.1" id="Layer_1" xmlns="http://www.w3.org/2000/svg" xmlns:xlink="http://www.w3.org/1999/xlink" x="0px" y="0px"
	 viewBox="0 0 136.1 77.6" enable-background="new 0 0 136.1 77.6" xml:space="preserve">
<path fill="#414042" d="M62.2,39.2c0.7-2,2.3-3,3.7-2.4c1.3,0.6,1.7,2.6,1,4.3c-0.6,1.7-2.1,2.7-3.4,2.3
	C62.2,43,61.5,41.1,62.2,39.2z"/>
<path fill="#414042" d="M68.5,41.1c-0.7-1.8-0.2-3.7,1-4.3c1.3-0.7,3,0.4,3.7,2.4c0.6,1.9,0,3.8-1.3,4.2
	C70.6,43.9,69.1,42.8,68.5,41.1z"/>
<path fill="#414042" d="M73.2,30.9c0-3,2-5.5,4.4-5.5c2.5,0,4.5,2.4,4.5,5.5c0,3-2,5.5-4.5,5.5C75.2,36.4,73.2,33.9,73.2,30.9z"/>
<path fill="#414042" d="M52.4,30.9c0-3,2-5.5,4.5-5.5c2.5,0,4.4,2.4,4.4,5.5c0,3-2,5.5-4.4,5.5C54.4,36.4,52.4,33.9,52.4,30.9z"/>
<g>
	<path fill="#414042" d="M47.8,50.4c0,3.1,12.5,12.9,20,12.6c7.5-0.4,19.5-7.3,19.1-11.2c-0.4-3.8-6.2,4.9-18.3,4.2
		C56.5,55.3,47.8,47.2,47.8,50.4z"/>
</g>
<path fill="#414042" d="M49.3,32.8c-8.4,3.6-14.9,10.3-14.9,20.4C34.5,69.8,51.9,77,66.9,77c15,0,32.4-7.2,32.4-23.8
	c0-2.5-0.4-4.7-1.1-6.8c-0.6-1.9-2.7-5.1-3.7-6.8c-0.1-0.3-0.2-0.5-0.3-0.8c15.7,4.2,13.4-24.6-0.5-16.6c-2.2-6.3-7-9.3-12.7-11.5
	c10.3-1.5-4.2-2.2-5.1-2.3c0.1-0.5,2.9-2.2-5.3-1.8c8.3-5-25.1-5.4-31.4,15.6c-13.8-8.1-15.2,20.3-1.9,16.4c1.7-0.8,1.9-1.5,2.1-2.1
	c0.2-0.9-0.6-1.4-1.5-1.1c-10.3,4.5-10.2-16.2,1.3-8.3c0.7,0.4,1.4,0.2,1.6-0.6c2.8-8.4,9.3-12.5,17.1-14.8c-0.9,0.7-0.3,2.2,1,1.9
	c2.8-0.7,5.2-1.1,7.4-1.2c-2.2,1-1.9,3.1-0.1,2.5c10.7-3.7,22.6,0.3,25.9,11.6c0.2,0.8,1,1.1,1.6,0.6c11-7.9,11.9,12.9,0.3,8.9
	c-0.8-0.3-6.8-1.8-7.9-2.4c-0.3-0.2-0.6-0.3-0.9-0.4c2.1,2.2,8.1,9.2,8.5,20.1c0.4,11.4-12.2,20.5-26.8,20.5
	c-14.6,0-26.8-9.1-26.8-20.5C40.1,46.4,43.1,38.6,49.3,32.8z"/>
</svg>
