<?xml version="1.0" encoding="utf-8"?>
<!-- Generator: Adobe Illustrator 18.1.1, SVG Export Plug-In . SVG Version: 6.00 Build 0)  -->
<svg version="1.1" id="Layer_1" xmlns="http://www.w3.org/2000/svg" xmlns:xlink="http://www.w3.org/1999/xlink" x="0px" y="0px"
	 viewBox="0 0 110.2 62.8" enable-background="new 0 0 110.2 62.8" xml:space="preserve">
<g id="Your_Icon">
	<g>
		<path fill="#414042" d="M30.2,57c-4.7,0-8.6-6.5-8.6-14.6c0-8.1,3.9-14.6,8.6-14.6H46c-4.8,0-8.6,6.5-8.6,14.6
			c0,8.1,3.9,14.6,8.6,14.6H30.2z"/>
		<path fill="#414042" d="M46,58.7C46,58.7,46,58.7,46,58.7H30.2c-5.8,0-10.4-7.2-10.4-16.4c0-9.2,4.6-16.4,10.4-16.4H46
			c1,0,1.8,0.8,1.8,1.8c0,1-0.8,1.8-1.8,1.8c-3.7,0-6.8,5.9-6.8,12.8c0,7,3.1,12.8,6.8,12.8c0,0,0,0,0,0h0c1,0,1.8,0.8,1.8,1.8
			C47.8,57.9,47,58.7,46,58.7z M30.2,29.5c-3.7,0-6.8,5.9-6.8,12.8c0,7,3.1,12.8,6.8,12.8h9.3c-2.4-3-3.9-7.6-3.9-12.8
			c0-5.3,1.5-9.9,3.9-12.8H30.2z"/>
	</g>
	<g>
		<path fill="#414042" d="M58.2,62.3c-2.8,0-5.5-0.3-6.9-0.7c-6.2-1.4-8.3-7.4-8.5-10.4c-0.1-1,0.6-1.8,1.6-1.9
			c1-0.1,1.8,0.6,1.9,1.6c0,0.2,0.6,6,5.8,7.2c3.8,0.9,11.5,0.8,13.8-0.9c0.8-0.6,1.9-0.5,2.5,0.3c0.6,0.8,0.5,1.9-0.3,2.5
			C65.9,61.8,61.9,62.3,58.2,62.3z"/>
	</g>
	<g>
		<path fill="#414042" d="M57.7,45.6c-0.8,0-1.6-0.6-1.7-1.4c-0.2-1,0.5-1.9,1.4-2c0.2,0,4.7-1,6.7-6.3c2.4-6.4-2.3-12.5-2.4-12.5
			c-0.5-0.6-0.5-1.6,0-2.2c2.2-2.7,2.6-5.2,2.6-6.9c0-0.6-0.3-3.9-4.3-7.2c-2.2-1.8-3.1-1.8-4.2-1.3c0.1,0.6,0.6,1.8,0.9,2.6
			c0.6,1.5,1.3,3,1.2,4.3c-0.1,2.2-0.2,6.9-4.3,12.6c-4.1,5.6-11.9,7-12.2,7.1c-1,0.2-1.9-0.5-2-1.4c-0.2-1,0.5-1.9,1.4-2
			c0.1,0,6.8-1.3,10-5.7c3.5-4.8,3.6-8.4,3.7-10.6c0-0.6-0.5-1.8-1-2.9c-1-2.2-2.4-5.6,0.5-7c3.3-1.6,5.7-0.5,8.3,1.6
			c5.1,4.2,5.6,8.6,5.6,9.9c0,1.7-0.3,4.8-2.6,8.1c1.5,2.4,4.5,8.3,2.1,14.8c-2.7,7.3-9.1,8.5-9.4,8.6
			C57.9,45.6,57.8,45.6,57.7,45.6z"/>
	</g>
	<g>
		<g>
			<path fill="#414042" d="M80.8,47.4c-3.6,0-7.8-0.9-9.4-2.7c-1.4-1.5-2-4.8-0.6-7c0.7-1.2,2.6-3.1,7.2-2c0.9,0.2,1.5,1.2,1.3,2.1
				c-0.2,0.9-1.2,1.5-2.1,1.3c-1-0.2-2.8-0.5-3.3,0.4c-0.5,0.9-0.1,2.5,0.2,2.8c1,1.1,7.3,2.2,10,1.1c1-0.4,2.2-1.1,2.6-2.3
				c0.4-1.2,0.1-2.7-1-4.5c-0.5-0.8-0.2-1.9,0.7-2.4c0.8-0.5,1.9-0.2,2.4,0.7c1.6,2.8,2,5.3,1.2,7.4c-0.7,2-2.3,3.5-4.6,4.4
				C84.2,47.2,82.6,47.4,80.8,47.4z"/>
		</g>
		<g>
			<path fill="#414042" d="M80.3,39.4c-3.6,0-7.6-1.1-9.2-2.8c-1.3-1.5-1.9-4.5-0.7-6.7c0.7-1.2,2.5-3.1,7-2.2
				c1,0.2,1.6,1.1,1.4,2.1c-0.2,1-1.1,1.6-2.1,1.4c-0.8-0.2-2.8-0.4-3.3,0.5c-0.5,0.8-0.1,2.2,0.2,2.6c1,1.1,7.4,2.3,9.5,1.1
				c1.6-0.8,2.8-3.8,2.1-6.4c-0.8-3.3-4.3-5.2-9.9-5.2c-1,0-1.8-0.8-1.8-1.8s0.8-1.8,1.8-1.8c10.2,0,12.7,5.5,13.3,7.8
				c1,4-0.7,8.7-3.9,10.4C83.8,39.2,82.1,39.4,80.3,39.4z"/>
		</g>
		<g>
			<path fill="#414042" d="M76.9,55.9c-3.2,0-6.6-1-8.1-2.7c-1.4-1.5-2.1-5-0.8-7.5c0.6-1.3,2.3-3.3,6.5-2.9c1,0.1,1.7,1,1.6,1.9
				c-0.1,1-1,1.7-1.9,1.6c-2.3-0.2-2.8,0.7-3,1c-0.6,1.2-0.1,3.1,0.3,3.5c1.2,1.3,5.8,2.1,8.3,1.1c1-0.4,2.1-3.4,1.9-4.3
				c-0.3-0.9,0.3-1.9,1.2-2.2c0.9-0.3,1.9,0.3,2.2,1.2c0.7,2.3-1,7.4-3.9,8.6C79.9,55.7,78.4,55.9,76.9,55.9z"/>
		</g>
		<g>
			<path fill="#414042" d="M71.4,61.4c-2.8,0-5.7-0.9-7.1-2.4c-1.2-1.4-1.8-4.5-0.7-6.7c0.6-1.1,2.1-3,5.8-2.6c1,0.1,1.7,1,1.6,1.9
				c-0.1,1-1,1.7-1.9,1.6c-1.8-0.2-2.2,0.5-2.3,0.7c-0.5,0.9-0.1,2.4,0.2,2.8c0.8,0.9,4.7,1.8,6.8,0.9c0.7-0.3,1.3-1.8,1.4-3.1
				c0.1-1,1-1.7,1.9-1.6c1,0.1,1.7,1,1.6,1.9c-0.1,1.1-0.7,4.8-3.6,6C74.1,61.2,72.8,61.4,71.4,61.4z"/>
		</g>
	</g>
</g>
</svg>
